M48
; DRILL file {KiCad (5.1.5-0-10_14)} date 2021 January 03, Sunday 23:05:38
; FORMAT={-:-/ absolute / inch / decimal}
; #@! TF.CreationDate,2021-01-03T23:05:38+01:00
; #@! TF.GenerationSoftware,Kicad,Pcbnew,(5.1.5-0-10_14)
; #@! TF.FileFunction,Plated,1,2,PTH
FMAT,2
INCH
T1C0.0157
T2C0.0315
T3C0.0354
T4C0.0394
T5C0.0400
T6C0.0413
T7C0.0433
T8C0.0591
%
G90
G05
T1
X5.52Y-4.04
X5.6Y-4.58
X6.2661Y-4.0074
X6.9Y-4.4
X7.0Y-3.88
T2
X4.72Y-4.48
X4.72Y-4.78
X4.82Y-4.48
X4.82Y-4.78
X4.92Y-4.48
X4.92Y-4.78
X6.88Y-4.48
X6.88Y-4.78
X6.98Y-4.48
X6.98Y-4.78
X7.08Y-4.48
X7.08Y-4.78
T3
X6.06Y-4.0425
X6.06Y-4.2
X5.66Y-4.0425
X5.66Y-4.2
T4
X5.02Y-5.42
X5.12Y-5.42
X5.22Y-5.42
X5.32Y-5.42
X5.42Y-5.42
X5.52Y-5.42
X5.66Y-4.38
X5.66Y-4.48
T5
X6.06Y-3.2157
X6.06Y-3.4126
X6.06Y-3.6094
X5.66Y-3.2157
X5.66Y-3.4126
X5.66Y-3.6094
T6
X5.2Y-4.48
X5.2Y-4.58
X5.2Y-4.68
X5.2Y-4.78
X5.3Y-4.48
X5.3Y-4.58
X5.3Y-4.68
X5.3Y-4.78
T7
X5.02Y-5.06
X5.12Y-5.06
X5.22Y-5.06
T8
X4.97Y-3.14
X5.145Y-3.14
X5.32Y-3.14
X6.45Y-3.14
X6.625Y-3.14
X6.8Y-3.14
X4.7Y-3.38
X4.7Y-3.58
X7.1Y-3.38
X7.1Y-3.58
T3
G00X5.0554Y-3.5
M15
G01X5.2246Y-3.5
M16
G05
G00X5.0554Y-3.7756
M15
G01X5.2246Y-3.7756
M16
G05
G00X5.0554Y-4.0512
M15
G01X5.2246Y-4.0512
M16
G05
G00X6.5354Y-3.5
M15
G01X6.7046Y-3.5
M16
G05
G00X6.5354Y-3.7756
M15
G01X6.7046Y-3.7756
M16
G05
G00X6.5354Y-4.0512
M15
G01X6.7046Y-4.0512
M16
G05
T0
M30
